<mxfile host="app.diagrams.net" modified="2021-09-25T14:42:48.755Z" agent="5.0 (Windows NT 10.0; Win64; x64) AppleWebKit/537.36 (KHTML, like Gecko) Chrome/93.0.4577.63 Safari/537.36" etag="vVMvGSjbFL0MMtNkyTLS" version="15.3.2" type="github">
  <diagram id="o7MOwOsH71vMDw9eeKVd" name="第 1 页">
    <mxGraphModel dx="1038" dy="547" grid="1" gridSize="10" guides="1" tooltips="1" connect="1" arrows="1" fold="1" page="1" pageScale="1" pageWidth="827" pageHeight="1169" math="0" shadow="0">
      <root>
        <mxCell id="0" />
        <mxCell id="1" parent="0" />
        <mxCell id="0n4l9_rbn2Ijb-Nl6UGC-20" value="通知数据更新" style="edgeStyle=orthogonalEdgeStyle;rounded=0;orthogonalLoop=1;jettySize=auto;html=1;entryX=0;entryY=0.5;entryDx=0;entryDy=0;fontSize=12;" edge="1" parent="1" source="0n4l9_rbn2Ijb-Nl6UGC-1" target="0n4l9_rbn2Ijb-Nl6UGC-11">
          <mxGeometry relative="1" as="geometry" />
        </mxCell>
        <mxCell id="0n4l9_rbn2Ijb-Nl6UGC-1" value="" style="rounded=1;whiteSpace=wrap;html=1;" vertex="1" parent="1">
          <mxGeometry x="40" y="40" width="190" height="200" as="geometry" />
        </mxCell>
        <mxCell id="0n4l9_rbn2Ijb-Nl6UGC-6" value="Observer" style="text;html=1;align=center;verticalAlign=middle;resizable=0;points=[];autosize=1;strokeColor=none;fillColor=none;fontSize=20;fontStyle=0" vertex="1" parent="1">
          <mxGeometry x="90.00470588235294" y="60.714285714285715" width="100" height="30" as="geometry" />
        </mxCell>
        <mxCell id="0n4l9_rbn2Ijb-Nl6UGC-21" value="通知变更" style="edgeStyle=orthogonalEdgeStyle;rounded=0;orthogonalLoop=1;jettySize=auto;html=1;entryX=0;entryY=0.5;entryDx=0;entryDy=0;fontSize=12;" edge="1" parent="1" source="0n4l9_rbn2Ijb-Nl6UGC-11" target="0n4l9_rbn2Ijb-Nl6UGC-15">
          <mxGeometry relative="1" as="geometry" />
        </mxCell>
        <mxCell id="0n4l9_rbn2Ijb-Nl6UGC-11" value="" style="rounded=1;whiteSpace=wrap;html=1;" vertex="1" parent="1">
          <mxGeometry x="320" y="40" width="190" height="200" as="geometry" />
        </mxCell>
        <mxCell id="0n4l9_rbn2Ijb-Nl6UGC-12" value="&lt;div style=&quot;text-align: left&quot;&gt;&lt;span&gt;- 角色：&lt;/span&gt;&lt;span style=&quot;color: rgb(33 , 37 , 41) ; background-color: rgb(255 , 255 , 255)&quot;&gt;调度中心/订阅器&lt;/span&gt;&lt;/div&gt;&lt;font style=&quot;font-size: 12px&quot;&gt;&lt;div style=&quot;text-align: left&quot;&gt;&lt;font&gt;&lt;span style=&quot;color: rgb(33 , 37 , 41) ; background-color: rgb(255 , 255 , 255)&quot;&gt;-&amp;nbsp;&lt;/span&gt;&lt;span style=&quot;color: rgb(33 , 37 , 41) ; background-color: rgb(255 , 255 , 255)&quot;&gt;作用：&lt;/span&gt;&lt;/font&gt;&lt;span style=&quot;color: rgb(33 , 37 , 41) ; font-family: , &amp;#34;blinkmacsystemfont&amp;#34; , &amp;#34;segoe ui&amp;#34; , &amp;#34;roboto&amp;#34; , &amp;#34;helvetica neue&amp;#34; , &amp;#34;arial&amp;#34; , &amp;#34;noto sans&amp;#34; , &amp;#34;liberation sans&amp;#34; , sans-serif , &amp;#34;apple color emoji&amp;#34; , &amp;#34;segoe ui emoji&amp;#34; , &amp;#34;segoe ui symbol&amp;#34; , &amp;#34;noto color emoji&amp;#34; ; background-color: rgb(255 , 255 , 255)&quot;&gt;收集依赖，通知观察者&lt;/span&gt;&lt;/div&gt;&lt;/font&gt;" style="text;html=1;align=center;verticalAlign=middle;resizable=0;points=[];autosize=1;strokeColor=none;fillColor=none;fontSize=12;" vertex="1" parent="1">
          <mxGeometry x="330" y="135" width="180" height="30" as="geometry" />
        </mxCell>
        <mxCell id="0n4l9_rbn2Ijb-Nl6UGC-13" value="Dep" style="text;html=1;align=center;verticalAlign=middle;resizable=0;points=[];autosize=1;strokeColor=none;fillColor=none;fontSize=20;fontStyle=0" vertex="1" parent="1">
          <mxGeometry x="395.00470588235294" y="60.71428571428572" width="50" height="30" as="geometry" />
        </mxCell>
        <mxCell id="0n4l9_rbn2Ijb-Nl6UGC-14" value="- 劫持数据，进行监听&lt;br&gt;- 在getter中向Dep添加观察者&lt;br&gt;- 在setter中通知观察者更新" style="text;html=1;align=left;verticalAlign=middle;resizable=0;points=[];autosize=1;strokeColor=none;fillColor=none;fontSize=12;" vertex="1" parent="1">
          <mxGeometry x="55" y="135" width="170" height="50" as="geometry" />
        </mxCell>
        <mxCell id="0n4l9_rbn2Ijb-Nl6UGC-22" value="变更 View" style="edgeStyle=orthogonalEdgeStyle;rounded=0;orthogonalLoop=1;jettySize=auto;html=1;fontSize=12;" edge="1" parent="1" source="0n4l9_rbn2Ijb-Nl6UGC-15" target="0n4l9_rbn2Ijb-Nl6UGC-19">
          <mxGeometry relative="1" as="geometry" />
        </mxCell>
        <mxCell id="0n4l9_rbn2Ijb-Nl6UGC-15" value="" style="rounded=1;whiteSpace=wrap;html=1;" vertex="1" parent="1">
          <mxGeometry x="600" y="40" width="190" height="200" as="geometry" />
        </mxCell>
        <mxCell id="0n4l9_rbn2Ijb-Nl6UGC-16" value="&lt;div style=&quot;text-align: left&quot;&gt;被观察的值发生变化时，&lt;/div&gt;&lt;div style=&quot;text-align: left&quot;&gt;会接收到来自dep的通知，&lt;/div&gt;&lt;div style=&quot;text-align: left&quot;&gt;从而触发回调函数&lt;br&gt;&lt;/div&gt;" style="text;html=1;align=center;verticalAlign=middle;resizable=0;points=[];autosize=1;strokeColor=none;fillColor=none;fontSize=12;" vertex="1" parent="1">
          <mxGeometry x="620" y="125" width="160" height="50" as="geometry" />
        </mxCell>
        <mxCell id="0n4l9_rbn2Ijb-Nl6UGC-17" value="Watcher" style="text;html=1;align=center;verticalAlign=middle;resizable=0;points=[];autosize=1;strokeColor=none;fillColor=none;fontSize=20;fontStyle=0" vertex="1" parent="1">
          <mxGeometry x="655.0047058823529" y="60.71428571428572" width="90" height="30" as="geometry" />
        </mxCell>
        <mxCell id="0n4l9_rbn2Ijb-Nl6UGC-19" value="View" style="rounded=0;whiteSpace=wrap;html=1;fontSize=12;" vertex="1" parent="1">
          <mxGeometry x="40" y="320" width="750" height="100" as="geometry" />
        </mxCell>
      </root>
    </mxGraphModel>
  </diagram>
</mxfile>
